<?xml version="1.0" encoding="UTF-8" standalone="no"?>
<!-- Created with Inkscape (http://www.inkscape.org/) -->

<svg
   xmlns:dc="http://purl.org/dc/elements/1.1/"
   xmlns:cc="http://creativecommons.org/ns#"
   xmlns:rdf="http://www.w3.org/1999/02/22-rdf-syntax-ns#"
   xmlns:svg="http://www.w3.org/2000/svg"
   xmlns="http://www.w3.org/2000/svg"
   xmlns:sodipodi="http://sodipodi.sourceforge.net/DTD/sodipodi-0.dtd"
   xmlns:inkscape="http://www.inkscape.org/namespaces/inkscape"
   width="32"
   height="32"
   id="svg2"
   version="1.1"
   inkscape:version="0.48.4 r9939"
   sodipodi:docname="wordpress.svg">
  <defs
     id="defs4" />
  <sodipodi:namedview
     id="base"
     pagecolor="#ffffff"
     bordercolor="#666666"
     borderopacity="1.0"
     inkscape:pageopacity="0.0"
     inkscape:pageshadow="2"
     inkscape:zoom="12.291907"
     inkscape:cx="19.302881"
     inkscape:cy="9.3401039"
     inkscape:document-units="px"
     inkscape:current-layer="layer1"
     showgrid="false"
     inkscape:window-width="1317"
     inkscape:window-height="744"
     inkscape:window-x="49"
     inkscape:window-y="24"
     inkscape:window-maximized="1" />
  <metadata
     id="metadata7">
    <rdf:RDF>
      <cc:Work
         rdf:about="">
        <dc:format>image/svg+xml</dc:format>
        <dc:type
           rdf:resource="http://purl.org/dc/dcmitype/StillImage" />
        <dc:title></dc:title>
      </cc:Work>
    </rdf:RDF>
  </metadata>
  <g
     inkscape:label="Calque 1"
     inkscape:groupmode="layer"
     id="layer1"
     transform="translate(0,-1020.3622)">
    <g
       id="g3048"
       transform="translate(-2.9287562,0.16270868)">
      <path
         id="path2446"
         inkscape:connector-curvature="0"
         d="m 18.846521,1024.9551 c 2.925988,0 5.590192,1.1213 7.587415,2.9571 -0.978615,-0.026 -1.955382,0.5557 -1.995968,1.8881 -0.08212,2.6938 3.221058,3.2672 1.440918,8.6854 l -1.472339,4.4815 -4.00991,-11.8119 c -0.06208,-0.1829 0.01031,-0.2868 0.235004,-0.2868 l 1.133639,0 c 0.05892,0 0.107081,-0.05 0.107081,-0.1119 l 0,-0.6714 c 0,-0.062 -0.04829,-0.1144 -0.107081,-0.1119 -2.146834,0.094 -4.281041,0.094 -6.402151,0 -0.05878,0 -0.107081,0.05 -0.107081,0.1119 l 0,0.6714 c 0,0.062 0.04818,0.1119 0.107081,0.1119 l 1.139842,0 c 0.253554,0 0.324541,0.084 0.384317,0.248 l 1.647904,4.5061 -2.478652,7.4834 -4.073565,-11.9997 c -0.05095,-0.1501 0.0102,-0.2377 0.155423,-0.2377 l 1.298803,0 c 0.05889,0 0.107062,-0.05 0.107062,-0.112 l 0,-0.6714 c 0,-0.062 -0.04834,-0.115 -0.107062,-0.1119 -1.362692,0.072 -2.730598,0.087 -4.0047847,0.1 1.9995307,-3.0801 5.4690737,-5.1182 9.4141237,-5.1182 l -1.3e-5,0 z m 9.865261,5.8757 c 0.861915,1.588 1.351339,3.4075 1.351339,5.3409 0,4.2429 -2.357457,7.936 -5.833336,9.8417 l 3.498849,-9.908 c 0.541606,-1.5336 1.044655,-3.6059 0.983168,-5.2746 l -2e-5,0 z m -6.109761,15.9121 c -1.174244,0.4175 -2.438207,0.6454 -3.755526,0.6454 -1.134632,0 -2.229593,-0.1692 -3.26194,-0.4827 l 3.455462,-9.9025 3.562004,9.7398 0,0 z m -8.554939,-0.4316 c -3.793188,-1.7989 -6.4172017,-5.6632 -6.4172017,-10.1396 0,-1.6592 0.360952,-3.2344 1.007866,-4.6515 l 5.4093197,14.7912 1.6e-5,-10e-5 z m 4.7994,-22.4086 c 6.774797,0 12.269021,5.4942 12.269021,12.269 0,6.7748 -5.494224,12.269 -12.269021,12.269 -6.774795,0 -12.2690227,-5.4942 -12.2690227,-12.269 0,-6.7748 5.4942277,-12.269 12.2690227,-12.269 l 0,0 z m 0,-0.7755 c 7.203051,0 13.044517,5.8415 13.044517,13.0446 0,7.203 -5.841466,13.0445 -13.044517,13.0445 -7.203052,0 -13.0445157,-5.8415 -13.0445157,-13.0445 0,-7.2031 5.8414637,-13.0446 13.0445157,-13.0446 l 0,0 z"
         style="fill:#1f1a17;fill-rule:evenodd" />
      <path
         id="path2446-8"
         inkscape:connector-curvature="0"
         d="m 18.874247,1025.329 c 2.925987,0 5.590191,1.1213 7.587414,2.9571 -0.978615,-0.026 -1.955382,0.5557 -1.995968,1.8881 -0.08212,2.6938 3.221058,3.2672 1.440918,8.6854 l -1.472339,4.4815 -4.00991,-11.8119 c -0.06208,-0.1829 0.01031,-0.2868 0.235004,-0.2868 l 1.133639,0 c 0.05892,0 0.107081,-0.05 0.107081,-0.1119 l 0,-0.6714 c 0,-0.062 -0.04829,-0.1144 -0.107081,-0.1119 -2.146834,0.094 -4.28104,0.094 -6.402151,0 -0.05878,0 -0.107081,0.05 -0.107081,0.1119 l 0,0.6714 c 0,0.062 0.04818,0.1119 0.107081,0.1119 l 1.139843,0 c 0.253554,0 0.324541,0.084 0.384317,0.248 l 1.647904,4.5061 -2.478652,7.4834 -4.073566,-11.9997 c -0.05095,-0.1501 0.0102,-0.2377 0.155422,-0.2377 l 1.298804,0 c 0.05889,0 0.107062,-0.05 0.107062,-0.112 l 0,-0.6714 c 0,-0.062 -0.04834,-0.115 -0.107062,-0.1119 -1.362692,0.072 -2.730598,0.087 -4.0047848,0.1 1.9995308,-3.0801 5.4690738,-5.1182 9.4141248,-5.1182 l -1.3e-5,0 z m 9.86526,5.8757 c 0.861915,1.588 1.351339,3.4075 1.351339,5.3409 0,4.2429 -2.357457,7.936 -5.833336,9.8417 l 3.498849,-9.908 c 0.541606,-1.5336 1.044655,-3.6059 0.983168,-5.2746 l -2e-5,0 z m -6.109761,15.9121 c -1.174244,0.4175 -2.438207,0.6454 -3.755525,0.6454 -1.134632,0 -2.229593,-0.1692 -3.261941,-0.4827 l 3.455463,-9.9025 3.562003,9.7398 0,0 z m -8.554939,-0.4316 c -3.793188,-1.7989 -6.4172018,-5.6632 -6.4172018,-10.1396 0,-1.6592 0.360952,-3.2344 1.007866,-4.6515 l 5.4093198,14.7912 1.6e-5,-1e-4 z m 4.799401,-22.4086 c 6.774796,0 12.26902,5.4942 12.26902,12.269 0,6.7748 -5.494224,12.269 -12.26902,12.269 -6.774796,0 -12.2690243,-5.4942 -12.2690243,-12.269 0,-6.7748 5.4942283,-12.269 12.2690243,-12.269 l 0,0 z m 0,-0.7755 c 7.20305,0 13.044516,5.8415 13.044516,13.0446 0,7.203 -5.841466,13.0445 -13.044516,13.0445 -7.203053,0 -13.0445173,-5.8415 -13.0445173,-13.0445 0,-7.2031 5.8414643,-13.0446 13.0445173,-13.0446 l 0,0 z"
         style="fill:#ffffff;fill-rule:evenodd" />
    </g>
  </g>
</svg>
